<?xml version="1.0" encoding="UTF-8"?>
<svg version="1.1" xmlns="http://www.w3.org/2000/svg" width="50" height="50">
<path d="M0 0 C3.08399684 1.16496997 5.82369084 2.39522018 8.55859375 4.234375 C9.19216797 4.64300781 9.82574219 5.05164063 10.47851562 5.47265625 C11.78897512 6.32713333 13.09112273 7.19448968 14.38476562 8.07421875 C18.37686157 10.6241966 18.37686157 10.6241966 23.01953125 10.5546875 C26.58741096 8.69359166 29.92137812 6.6316928 33.25 4.375 C39.74539877 0 39.74539877 0 42 0 C42.05785647 3.95827235 42.09354717 7.9164367 42.125 11.875 C42.14175781 13.00292969 42.15851562 14.13085938 42.17578125 15.29296875 C42.18544922 16.90751953 42.18544922 16.90751953 42.1953125 18.5546875 C42.21102295 20.04718018 42.21102295 20.04718018 42.22705078 21.56982422 C42 24 42 24 40 26 C37.15459858 26.19990227 34.40862216 26.27976976 31.5625 26.265625 C30.72662354 26.26753845 29.89074707 26.2694519 29.02954102 26.27142334 C27.26090189 26.27278536 25.49225277 26.26908776 23.72363281 26.26074219 C21.01084006 26.25004275 18.29870956 26.26063676 15.5859375 26.2734375 C13.8697902 26.27211591 12.15364331 26.26955352 10.4375 26.265625 C9.2155896 26.27169769 9.2155896 26.27169769 7.96899414 26.27789307 C2.22991928 26.22991928 2.22991928 26.22991928 0 24 C-0.22705078 21.56982422 -0.22705078 21.56982422 -0.1953125 18.5546875 C-0.18886719 17.47832031 -0.18242188 16.40195312 -0.17578125 15.29296875 C-0.15902344 14.16503906 -0.14226562 13.03710938 -0.125 11.875 C-0.11597656 10.73933594 -0.10695312 9.60367187 -0.09765625 8.43359375 C-0.07403098 5.62218701 -0.04109013 2.81119702 0 0 Z " fill="#e23745d7" transform="translate(4,16)"/>
<path d="M0 0 C0.83729141 -0.0033284 1.67458282 -0.0066568 2.5372467 -0.01008606 C4.31185353 -0.01515881 6.08646992 -0.01749428 7.86108398 -0.01733398 C10.58267881 -0.01951922 13.30386768 -0.03766758 16.02539062 -0.05664062 C17.74609236 -0.05957467 19.46679602 -0.06155939 21.1875 -0.0625 C22.00524399 -0.06968552 22.82298798 -0.07687103 23.66551208 -0.08427429 C29.43133421 -0.06085329 29.43133421 -0.06085329 31.66015625 2.16796875 C31.47475126 4.82388687 30.99175466 5.87426454 28.98950195 7.64770508 C26.66055978 9.11012552 24.32856829 10.56175586 21.97265625 11.98046875 C21.16892578 12.49544922 20.36519531 13.01042969 19.53710938 13.54101562 C16.14369041 15.61369262 13.6410901 17.11227702 9.6328125 17.33984375 C5.3056499 15.63399778 1.62281444 13.21052316 -2.21484375 10.60546875 C-2.99859375 10.08533203 -3.78234375 9.56519531 -4.58984375 9.02929688 C-6.51281942 7.75122158 -8.42898244 6.46405612 -10.33984375 5.16796875 C-8.91200335 -1.15532444 -5.91213998 0.00802564 0 0 Z " fill="#e23745d7" transform="translate(14.33984375,7.83203125)"/>
</svg>
